<svg fill="none" height="50" viewBox="0 0 50 50" width="50" xmlns="http://www.w3.org/2000/svg" xmlns:xlink="http://www.w3.org/1999/xlink"><clipPath id="a"><path d="m7 7h36v36h-36z"/></clipPath><rect fill="#d8d8d8" height="50" rx="25" width="50"/><g clip-path="url(#a)" fill="#303030"><path d="m30.625 26.125c0 1.4918-.5926 2.9226-1.6475 3.9775s-2.4857 1.6475-3.9775 1.6475-2.9226-.5926-3.9775-1.6475-1.6475-2.4857-1.6475-3.9775.5926-2.9226 1.6475-3.9775 2.4857-1.6475 3.9775-1.6475 2.9226.5926 3.9775 1.6475 1.6475 2.4857 1.6475 3.9775z"/><path d="m11.5 16c-1.1935 0-2.33807.4741-3.18198 1.318s-1.31802 1.9885-1.31802 3.182v13.5c0 1.1935.47411 2.3381 1.31802 3.182s1.98848 1.318 3.18198 1.318h27c1.1935 0 2.3381-.4741 3.182-1.318s1.318-1.9885 1.318-3.182v-13.5c0-1.1935-.4741-2.3381-1.318-3.182s-1.9885-1.318-3.182-1.318h-2.637c-1.1934-.0003-2.3378-.4745-3.1815-1.3185l-1.863-1.863c-.8437-.844-1.9881-1.3182-3.1815-1.3185h-5.274c-1.1934.0003-2.3378.4745-3.1815 1.3185l-1.863 1.863c-.8437.844-1.9881 1.3182-3.1815 1.3185zm1.125 4.5c-.2984 0-.5845-.1185-.7955-.3295s-.3295-.4971-.3295-.7955.1185-.5845.3295-.7955.4971-.3295.7955-.3295.5845.1185.7955.3295.3295.4971.3295.7955-.1185.5845-.3295.7955-.4971.3295-.7955.3295zm20.25 5.625c0 2.0886-.8297 4.0916-2.3065 5.5685-1.4769 1.4768-3.4799 2.3065-5.5685 2.3065s-4.0916-.8297-5.5685-2.3065c-1.4768-1.4769-2.3065-3.4799-2.3065-5.5685s.8297-4.0916 2.3065-5.5685c1.4769-1.4768 3.4799-2.3065 5.5685-2.3065s4.0916.8297 5.5685 2.3065c1.4768 1.4769 2.3065 3.4799 2.3065 5.5685z"/></g></svg>