<svg fill="none" height="150" viewBox="0 0 150 150" width="150" xmlns="http://www.w3.org/2000/svg" xmlns:xlink="http://www.w3.org/1999/xlink"><mask id="a" fill="#fff"><path clip-rule="evenodd" d="m76.3526 125.25c28.9954 0 52.5004-23.505 52.5004-52.5s-23.505-52.5-52.5004-52.5c-28.995 0-52.5 23.505-52.5 52.5 0 8.6518 2.0928 16.8148 5.7998 24.0104l-9.3502 33.4656 35.5625-9.124c6.295 2.671 13.2189 4.148 20.4879 4.148z" fill="#fff" fill-rule="evenodd"/></mask><path d="m.1875.1875h149.625v149.625h-149.625z" fill="#10df99" stroke="#10df99" stroke-width=".375"/><path clip-rule="evenodd" d="m76.3526 125.25c28.9954 0 52.5004-23.505 52.5004-52.5s-23.505-52.5-52.5004-52.5c-28.995 0-52.5 23.505-52.5 52.5 0 8.6518 2.0928 16.8148 5.7998 24.0104l-9.3502 33.4656 35.5625-9.124c6.295 2.671 13.2189 4.148 20.4879 4.148z" fill="#fff" fill-rule="evenodd"/><path d="m29.6524 96.7604.3612.1009.0396-.1418-.0674-.1308zm-9.3502 33.4656-.3611-.101-.1748.626.6291-.161zm35.5625-9.124.1465-.345-.1168-.05-.1229.032zm72.6133-48.352c0 28.788-23.338 52.125-52.1254 52.125v.75c29.2024 0 52.8754-23.673 52.8754-52.875zm-52.1254-52.125c28.7874 0 52.1254 23.3372 52.1254 52.125h.75c0-29.2021-23.673-52.875-52.8754-52.875zm-52.125 52.125c0-28.7878 23.3371-52.125 52.125-52.125v-.75c-29.2021 0-52.875 23.6729-52.875 52.875zm5.7582 23.8387c-3.6803-7.1438-5.7582-15.248-5.7582-23.8387h-.75c0 8.7129 2.1077 16.9347 5.8414 24.1822zm-9.3224 33.7383 9.3502-33.4657-.7224-.2018-9.3501 33.4655zm35.1081-9.588-35.5624 9.124.1863.727 35.5625-9.125zm20.5811 4.136c-7.2177 0-14.0919-1.467-20.3414-4.118l-.2929.69c6.3405 2.69 13.3141 4.178 20.6343 4.178z" fill="#fff" mask="url(#a)"/><path clip-rule="evenodd" d="m74.5327 86.0294-8.2214-10.2794-1.2707 1.1449-1.1363-1.0484-21.9043 26.7415 6.2989 5.812 16.7868-20.4937 3.9077 4.8858-8.0242 9.7959 6.2989 5.812 7.1891-8.7763 7.0968 8.8733 6.3631-5.733-7.9205-9.903 4.0584-4.9547 16.468 20.5907 6.363-5.733-21.6054-27.014-1.2708 1.1449-1.1362-1.0484z" fill="#04c584" fill-rule="evenodd"/><g fill="#303030"><path d="m47.7033 63.806v-14.154h19.572v-2.814h-23.016v19.782h23.352v-2.814zm38.1327.294v-6.132h20.244v-11.55h-23.604v2.772h20.328v6.048h-20.244v11.718h24.192v-2.856z"/><path d="m47.7033 63.806h-2.25v2.25h2.25zm0-14.154v-2.25h-2.25v2.25zm19.572 0v2.25h2.25v-2.25zm0-2.814h2.25v-2.25h-2.25zm-23.016 0v-2.25h-2.25v2.25zm0 19.782h-2.25v2.25h2.25zm23.352 0v2.25h2.25v-2.25zm0-2.814h2.25v-2.25h-2.25zm-17.658 0v-14.154h-4.5v14.154zm-2.25-11.904h19.572v-4.5h-19.572zm21.822-2.25v-2.814h-4.5v2.814zm-2.25-5.064h-23.016v4.5h23.016zm-25.266 2.25v19.782h4.5v-19.782zm2.25 22.032h23.352v-4.5h-23.352zm25.602-2.25v-2.814h-4.5v2.814zm-2.25-5.064h-19.908v4.5h19.908zm18.2247 2.544h-2.25v2.25h2.25zm0-6.132v-2.25h-2.25v2.25zm20.244 0v2.25h2.25v-2.25zm0-11.55h2.25v-2.25h-2.25zm-23.604 0v-2.25h-2.25v2.25zm0 2.772h-2.25v2.25h2.25zm20.328 0h2.25v-2.25h-2.25zm0 6.048v2.25h2.25v-2.25zm-20.244 0v-2.25h-2.25v2.25zm0 11.718h-2.25v2.25h2.25zm24.192 0v2.25h2.25v-2.25zm0-2.856h2.25v-2.25h-2.25zm-18.666 0v-6.132h-4.5v6.132zm-2.25-3.882h20.244v-4.5h-20.244zm22.494-2.25v-11.55h-4.5v11.55zm-2.25-13.8h-23.604v4.5h23.604zm-25.854 2.25v2.772h4.5v-2.772zm2.25 5.022h20.328v-4.5h-20.328zm18.078-2.25v6.048h4.5v-6.048zm2.25 3.798h-20.244v4.5h20.244zm-22.494 2.25v11.718h4.5v-11.718zm2.25 13.968h24.192v-4.5h-24.192zm26.442-2.25v-2.856h-4.5v2.856zm-2.25-5.106h-20.916v4.5h20.916z"/></g></svg>