<svg preserveAspectRatio="xMidYMid meet" transform="translate3d(0px, 0px, 0px)" viewBox="0 0 200 200" xmlns="http://www.w3.org/2000/svg" xmlns:xlink="http://www.w3.org/1999/xlink"><clipPath id="a"><path d="m0 0h200v200h-200z"/></clipPath><g clip-path="url(#a)"><path d="m283.46398926 274.375c-10.11999512 0-20.23898316-2.20001221-29.66598511-6.59899902 0 0-237.0470047-110.6130066-237.0470047-110.6130066-12.51199961-5.83898925-17.92199945-20.71499633-12.08299923-33.22699737 5.83799935-12.51199341 20.71399975-17.92099762 33.22600079-12.08200073 0 0 237.04700851 110.61200714 237.04700851 110.61200714 5.41699219 2.5269928 11.63000488 2.52600097 17.04598999 0 0 0 237.04797363-110.61200714 237.04797363-110.61200714 12.51202393-5.83999634 27.38702393-.42999268 33.22601319 12.08200073 5.83801269 12.51200104.42803955 27.38800812-12.08398438 33.22699737 0 0-237.04699707 110.6130066-237.04699707 110.6130066-9.42599487 4.39898681-19.54598999 6.59899902-29.66601562 6.59899902z" display="block" fill="#fff" opacity=".7" transform="matrix(.24371625 0 0 .24371625 30.906441 42.503227)"/></g></svg>