<svg enable-background="new 0 0 60 60" viewBox="0 0 60 60" xmlns="http://www.w3.org/2000/svg"><g fill="#f0c419"><path d="m30 0c-.552 0-1 .448-1 1v6c0 .552.448 1 1 1s1-.448 1-1v-6c0-.552-.448-1-1-1z"/><path d="m30 52c-.552 0-1 .448-1 1v6c0 .552.448 1 1 1s1-.448 1-1v-6c0-.552-.448-1-1-1z"/><path d="m59 29h-6c-.552 0-1 .448-1 1s.448 1 1 1h6c.552 0 1-.448 1-1s-.448-1-1-1z"/><path d="m8 30c0-.552-.448-1-1-1h-6c-.552 0-1 .448-1 1s.448 1 1 1h6c.552 0 1-.448 1-1z"/><path d="m46.264 14.736c.256 0 .512-.098.707-.293l5.736-5.736c.391-.391.391-1.023 0-1.414s-1.023-.391-1.414 0l-5.736 5.736c-.391.391-.391 1.023 0 1.414.195.196.451.293.707.293z"/><path d="m13.029 45.557-5.736 5.736c-.391.391-.391 1.023 0 1.414.195.195.451.293.707.293s.512-.098.707-.293l5.736-5.736c.391-.391.391-1.023 0-1.414s-1.023-.391-1.414 0z"/><path d="m46.971 45.557c-.391-.391-1.023-.391-1.414 0s-.391 1.023 0 1.414l5.736 5.736c.195.195.451.293.707.293s.512-.098.707-.293c.391-.391.391-1.023 0-1.414z"/><path d="m8.707 7.293c-.391-.391-1.023-.391-1.414 0s-.391 1.023 0 1.414l5.736 5.736c.195.195.451.293.707.293s.512-.098.707-.293c.391-.391.391-1.023 0-1.414z"/><path d="m50.251 21.404c.162.381.532.61.921.61.13 0 .263-.026.39-.08l2.762-1.172c.508-.216.746-.803.53-1.311s-.804-.746-1.311-.53l-2.762 1.172c-.509.216-.746.803-.53 1.311z"/><path d="m9.749 38.596c-.216-.508-.803-.746-1.311-.53l-2.762 1.172c-.508.216-.746.803-.53 1.311.162.381.532.61.921.61.13 0 .263-.026.39-.08l2.762-1.172c.509-.216.746-.803.53-1.311z"/><path d="m54.481 38.813-2.781-1.125c-.511-.207-1.095.041-1.302.553s.041 1.095.553 1.302l2.782 1.124c.123.049.25.073.374.073.396 0 .771-.236.928-.626.206-.511-.041-1.094-.554-1.301z"/><path d="m5.519 21.188 2.781 1.124c.123.049.25.073.374.073.396 0 .771-.236.928-.626.207-.512-.041-1.095-.553-1.302l-2.782-1.124c-.513-.207-1.095.04-1.302.553-.206.511.041 1.094.554 1.302z"/><path d="m39.907 50.781c-.216-.508-.803-.745-1.311-.53-.508.216-.746.803-.53 1.311l1.172 2.762c.162.381.532.61.921.61.13 0 .263-.026.39-.08.508-.216.746-.803.53-1.311z"/><path d="m21.014 9.829c.13 0 .263-.026.39-.08.508-.216.746-.803.53-1.311l-1.172-2.762c-.215-.509-.802-.747-1.311-.53-.508.216-.746.803-.53 1.311l1.172 2.762c.161.381.532.61.921.61z"/><path d="m21.759 50.398c-.511-.205-1.095.04-1.302.553l-1.124 2.782c-.207.512.041 1.095.553 1.302.123.049.25.073.374.073.396 0 .771-.236.928-.626l1.124-2.782c.207-.512-.041-1.095-.553-1.302z"/><path d="m38.615 9.675c.396 0 .771-.236.928-.626l1.124-2.782c.207-.512-.041-1.095-.553-1.302-.511-.207-1.095.041-1.302.553l-1.124 2.782c-.207.512.041 1.095.553 1.302.123.049.25.073.374.073z"/><circle cx="30" cy="30" r="20"/></g><circle cx="30" cy="30" fill="#ede21b" r="15"/></svg>