<svg width="16" height="16" viewBox="0 0 16 16" fill="none" xmlns="http://www.w3.org/2000/svg">
	<path
		d="M2.66659 14.0002H3.33325V5.3335H2.66659C2.31296 5.3335 1.97382 5.47397 1.72378 5.72402C1.47373 5.97407 1.33325 6.31321 1.33325 6.66683V12.6668C1.33325 13.0205 1.47373 13.3596 1.72378 13.6096C1.97382 13.8597 2.31296 14.0002 2.66659 14.0002ZM13.3333 5.3335H8.66659L9.41459 3.08816C9.48133 2.88777 9.49951 2.67439 9.46763 2.4656C9.43576 2.25681 9.35473 2.05857 9.23124 1.88723C9.10774 1.71588 8.9453 1.57632 8.75731 1.48005C8.56931 1.38378 8.36113 1.33355 8.14992 1.3335H7.99992L4.66659 4.95883V14.0002H11.9999L14.6079 8.2695L14.6666 8.00016V6.66683C14.6666 6.31321 14.5261 5.97407 14.2761 5.72402C14.026 5.47397 13.6869 5.3335 13.3333 5.3335V5.3335Z"
		fill="#303030"
	/>
</svg>
