<svg fill="none" height="16" viewBox="0 0 16 16" width="16" xmlns="http://www.w3.org/2000/svg"><path d="m2.66659 14.0002h.66666v-8.6667h-.66666c-.35363 0-.69277.14047-.94281.39052-.25005.25005-.39053.58919-.39053.94281v5.99997c0 .3537.14048.6928.39053.9428.25004.2501.58918.3906.94281.3906zm10.66671-8.6667h-4.66671l.748-2.24534c.06674-.20039.08492-.41377.05304-.62256-.03187-.20879-.1129-.40703-.23639-.57837-.1235-.17135-.28594-.31091-.47393-.40718-.188-.09627-.39618-.1465-.60739-.14655h-.15l-3.33333 3.62533v9.04137h7.33331l2.608-5.7307.0587-.26934v-1.33333c0-.35362-.1405-.69276-.3905-.94281-.2501-.25005-.5892-.39052-.9428-.39052z" fill="#303030"/></svg>