<svg fill="none" height="16" viewBox="0 0 16 16" width="16" xmlns="http://www.w3.org/2000/svg"><path d="m3 9.5c-.39782 0-.77936-.15804-1.06066-.43934s-.43934-.66284-.43934-1.06066.15804-.77936.43934-1.06066.66284-.43934 1.06066-.43934.77936.15804 1.06066.43934.43934.66284.43934 1.06066-.15804.77936-.43934 1.06066-.66284.43934-1.06066.43934zm5 0c-.39782 0-.77936-.15804-1.06066-.43934s-.43934-.66284-.43934-1.06066.15804-.77936.43934-1.06066.66284-.43934 1.06066-.43934.77936.15804 1.06066.43934.43934.66284.43934 1.06066-.15804.77936-.43934 1.06066-.66284.43934-1.06066.43934zm5 0c-.3978 0-.7794-.15804-1.0607-.43934s-.4393-.66284-.4393-1.06066.158-.77936.4393-1.06066.6629-.43934 1.0607-.43934.7794.15804 1.0607.43934.4393.66284.4393 1.06066-.158.77936-.4393 1.06066-.6629.43934-1.0607.43934z" fill="#000"/></svg>